<?xml version="1.0" encoding="utf-8"?>
<!-- Generator: Adobe Illustrator 16.0.0, SVG Export Plug-In . SVG Version: 6.00 Build 0)  -->
<!DOCTYPE svg PUBLIC "-//W3C//DTD SVG 1.1//EN" "http://www.w3.org/Graphics/SVG/1.1/DTD/svg11.dtd">
<svg version="1.1" id="Layer_1" xmlns="http://www.w3.org/2000/svg" xmlns:xlink="http://www.w3.org/1999/xlink" x="0px" y="0px"
	 width="393px" height="143px" viewBox="0 0 393 143" enable-background="new 0 0 393 143" xml:space="preserve">
<g>
	<path fill-rule="evenodd" clip-rule="evenodd" fill="#132534" d="M149.205,79.549V40.272h-10.577v42.163
		c0,2.928,0.503,5.492,1.509,7.688c1.102,2.107,2.476,3.846,4.121,5.221c1.649,1.373,3.529,2.381,5.63,3.021
		c2.106,0.638,4.214,0.959,6.319,0.959c1.737,0,3.938-0.413,6.593-1.236v10.984c0,1.557-0.548,2.978-1.649,4.26
		c-1.006,1.373-2.699,2.059-5.08,2.059v10.572c2.288,0,4.485-0.454,6.592-1.371c2.104-0.82,3.937-2.014,5.492-3.572
		c1.647-1.463,2.932-3.248,3.846-5.354c0.915-2.011,1.373-4.21,1.373-6.593v-68.8H162.8v40.788c0,0.822-0.094,1.693-0.275,2.609
		c-0.184,0.824-0.505,1.604-0.961,2.333c-0.458,0.733-1.145,1.331-2.059,1.785c-0.825,0.46-1.926,0.69-3.298,0.69
		c-1.741,0-3.111-0.278-4.119-0.826c-0.916-0.639-1.604-1.418-2.061-2.333c-0.368-0.917-0.595-1.879-0.686-2.884
		C149.25,81.336,149.205,80.371,149.205,79.549z"/>
	<path fill-rule="evenodd" clip-rule="evenodd" fill="#132534" d="M219.79,98.088V57.164c0-0.732,0.092-1.512,0.274-2.335
		c0.186-0.916,0.502-1.737,0.962-2.474c0.455-0.822,1.099-1.463,1.922-1.918c0.915-0.551,2.059-0.826,3.436-0.826
		c1.646,0,2.927,0.319,3.843,0.961c0.916,0.639,1.558,1.419,1.922,2.336c0.458,0.823,0.735,1.785,0.825,2.884
		c0.092,1.003,0.138,1.92,0.138,2.745v39.551h10.575V58.537c0-2.93-0.274-5.445-0.824-7.553c-0.551-2.196-1.832-4.486-3.846-6.867
		c-1.558-1.828-3.523-3.112-5.905-3.845c-2.38-0.825-4.623-1.236-6.728-1.236c-2.566,0-4.854,0.411-6.868,1.236
		c-2.015,0.824-3.707,1.877-5.083,3.161c-1.556-1.558-3.432-2.658-5.629-3.297c-2.196-0.734-4.303-1.101-6.314-1.101
		c-2.748,0-5.22,0.505-7.418,1.511c-2.104,0.916-3.845,2.152-5.219,3.708c-1.556,1.649-2.704,3.572-3.434,5.768
		c-0.732,2.198-1.097,5.035-1.097,8.515v39.551h10.572V58.537c0-0.642,0-1.461,0-2.472c0.094-1.099,0.322-2.106,0.688-3.02
		c0.459-0.917,1.146-1.692,2.062-2.337c0.912-0.73,2.194-1.098,3.846-1.098c1.464,0,2.606,0.229,3.431,0.685
		c0.915,0.46,1.604,1.058,2.06,1.786c0.458,0.732,0.775,1.557,0.961,2.473c0.185,0.822,0.276,1.646,0.276,2.474v41.06H219.79z"/>
	<path fill-rule="evenodd" clip-rule="evenodd" fill="#132534" d="M266.894,57.028c0-0.735,0.094-1.513,0.274-2.335
		c0.182-0.916,0.503-1.741,0.961-2.473c0.458-0.734,1.143-1.328,2.061-1.783c0.914-0.551,2.104-0.826,3.571-0.826
		c1.644,0,2.93,0.319,3.844,0.961c0.915,0.639,1.558,1.419,1.922,2.336c0.459,0.916,0.733,1.921,0.825,3.02
		c0.09,1.009,0.138,1.877,0.138,2.609v21.012c0,0.734-0.048,1.648-0.138,2.749c-0.092,1.007-0.366,1.968-0.825,2.882
		c-0.364,0.917-1.007,1.692-1.922,2.336c-0.822,0.641-2.059,0.963-3.711,0.963c-1.735,0-3.109-0.278-4.115-0.826
		c-0.918-0.639-1.603-1.418-2.063-2.333c-0.365-0.917-0.594-1.879-0.684-2.884c-0.092-1.1-0.138-2.064-0.138-2.887V57.028z
		 M256.319,82.436c0,2.928,0.504,5.492,1.51,7.688c1.098,2.107,2.471,3.846,4.119,5.221c1.65,1.373,3.526,2.381,5.633,3.021
		c2.105,0.638,4.208,0.959,6.313,0.959c1.194,0,2.748-0.228,4.673-0.688c1.923-0.365,3.799-1.141,5.629-2.329
		c1.924-1.284,3.526-3.025,4.809-5.222c1.373-2.195,2.059-5.083,2.059-8.65V55.928c0-1.923-0.364-3.846-1.098-5.768
		c-0.643-2.014-1.695-3.845-3.159-5.496c-1.376-1.644-3.161-2.971-5.356-3.979c-2.198-1.098-4.808-1.649-7.829-1.649
		c-2.196,0-4.44,0.458-6.727,1.374V14.866h-10.574V82.436z"/>
	<path fill-rule="evenodd" clip-rule="evenodd" fill="#132534" d="M162.662,109.295c-0.092,1.005-0.369,1.967-0.827,2.881
		c-0.364,0.918-1.005,1.695-1.919,2.338c-0.824,0.641-2.062,0.961-3.71,0.961c-1.74,0-3.112-0.271-4.12-0.825
		c-0.915-0.64-1.603-1.415-2.061-2.333c-0.366-0.918-0.595-1.877-0.684-2.886h-10.714c0,2.931,0.503,5.494,1.511,7.692
		c1.099,2.105,2.472,3.842,4.119,5.219c1.649,1.373,3.527,2.381,5.632,3.021c2.106,0.638,4.212,0.959,6.316,0.959
		c1.191,0,2.747-0.228,4.672-0.687c1.92-0.367,3.797-1.144,5.629-2.332c1.922-1.281,3.526-3.021,4.806-5.217
		c1.375-2.198,2.059-5.086,2.059-8.655L162.662,109.295z"/>
	<path fill-rule="evenodd" clip-rule="evenodd" fill="#132534" d="M313.858,58.537c0-0.732,0.047-1.601,0.138-2.609
		c0.092-1.006,0.32-1.969,0.685-2.882c0.458-1.011,1.146-1.835,2.063-2.474c0.914-0.642,2.239-0.961,3.982-0.961
		c1.646,0,2.93,0.319,3.843,0.961c0.917,0.639,1.559,1.419,1.924,2.336c0.456,0.916,0.734,1.921,0.824,3.02
		c0.092,1.009,0.137,1.877,0.137,2.609h10.573v-2.609c0-1.923-0.365-3.846-1.095-5.768c-0.641-2.014-1.695-3.845-3.163-5.496
		c-1.37-1.644-3.157-2.971-5.354-3.979c-2.198-1.098-4.806-1.649-7.827-1.649c-2.106,0-4.212,0.366-6.318,1.101
		c-2.016,0.639-3.843,1.693-5.493,3.157c-1.649,1.37-2.975,3.114-3.982,5.218c-1.006,2.105-1.511,4.58-1.511,7.416v42.16h10.575
		V58.537z"/>
	<path fill-rule="evenodd" clip-rule="evenodd" fill="#132534" d="M378.968,48.512c-1.011-2.104-2.335-3.848-3.985-5.218
		c-1.646-1.464-3.479-2.519-5.494-3.157c-2.104-0.734-4.211-1.101-6.316-1.101c-3.02,0-5.632,0.552-7.825,1.649
		c-2.2,1.008-3.984,2.335-5.357,3.979c-1.463,1.651-2.518,3.482-3.159,5.496c-0.732,1.922-1.101,3.845-1.101,5.768v2.609h10.578
		c0-0.732,0.044-1.601,0.136-2.609c0.09-1.099,0.366-2.104,0.824-3.02c0.368-0.917,1.008-1.697,1.922-2.336
		c0.915-0.642,2.197-0.961,3.848-0.961c1.737,0,3.063,0.319,3.98,0.961c0.914,0.639,1.604,1.463,2.063,2.474
		c0.363,0.913,0.593,1.876,0.685,2.882c0.093,1.009,0.137,1.877,0.137,2.609v4.807h-9.91c-2.838,0-5.31,0.502-7.415,1.512
		c-2.104,1.006-3.846,2.332-5.218,3.982c-1.465,1.646-2.516,3.479-3.158,5.492c-0.732,2.104-1.098,4.213-1.098,6.318
		c0,3.019,0.547,5.63,1.647,7.824c1.01,2.2,2.335,3.984,3.98,5.355c1.649,1.467,3.483,2.521,5.495,3.159
		c1.922,0.731,3.844,1.101,5.766,1.101h20.485v-42.16C380.477,53.092,379.973,50.617,378.968,48.512z M356.973,86.549
		c-0.868-0.467-1.696-1.006-2.337-1.922c-0.64-0.912-0.959-2.193-0.959-3.843c0-1.739,0.319-3.065,0.959-3.981
		c0.641-0.915,1.467-1.605,2.475-2.062c1.226-0.552,2.023-0.745,3.207-0.745l9.584,0.04v13.479h-8.436c0,0,0.616,0,0-0.002
		C359.216,87.508,357.91,87.056,356.973,86.549z"/>
</g>
<text transform="matrix(1 0 0 1 187.3799 126.1367)" fill="#132534" font-family="'SourceSansPro-Light'" font-size="25.8378" letter-spacing="1">drupal dreamers</text>
<g>
	<path fill="#31C5F4" d="M105.821,36.129L82.224,12.533L62.778,31.976l8.148,8.149l11.297-11.297l15.642,15.643
		c8.639,8.639,8.639,22.646,0,31.286c-2.569,2.569-5.619,4.356-8.855,5.397c-0.539,4.037-1.668,8.008-3.402,11.773
		c7.38-0.749,14.558-3.947,20.213-9.602C118.854,70.293,118.854,49.164,105.821,36.129z"/>
	<path fill="#132534" d="M71.959,51.797L48.361,28.2l-23.6,23.597c-13.034,13.035-13.034,34.164,0,47.197
		c13.034,13.034,34.162,13.034,47.197,0C84.991,85.961,84.991,64.832,71.959,51.797z M64.004,91.425
		c-8.641,8.64-22.646,8.64-31.286,0c-8.64-8.64-8.64-22.646,0-31.286l15.644-15.641l15.643,15.641
		C72.642,68.779,72.642,82.785,64.004,91.425z"/>
</g>
</svg>
